<svg xmlns="http://www.w3.org/2000/svg" width="24" height="24" viewBox="0 0 24 24"><path d="M10.252 23h-3.21c-.612 0-1.157-.427-1.354-1.007l-1.591-4.993h4.615l.918 3.171c.178.552.512 1.041.962 1.408.758.618.271 1.421-.34 1.421zm9.286-21.902c-1.522.617-4.525 3.739-8.252 4.639-.802 1.099-1.285 2.882-1.285 4.846 0 1.861.438 3.553 1.165 4.662 3.941.942 6.303 3.996 8.309 4.671 2.201.742 4.529-3.468 4.525-9.422-.003-5.959-2.471-10.202-4.462-9.396zm1.704 15.472c-.719 1.656-1.987 1.685-2.72.001-.436-1.002-.731-2.772-.892-3.961h.38c1.174 0 2.125-.954 2.125-2.131s-.951-2.132-2.125-2.132h-.39c.16-1.21.538-2.947.974-3.89.764-1.652 1.941-1.68 2.72-.001 1.315 2.838 1.368 8.794-.072 12.114zm-12.435-1.57h-4.371c-2.452 0-4.436-2.047-4.436-4.5s1.984-4.5 4.436-4.5h4.444c-.561 1.3-.876 2.887-.876 4.594 0 1.627.29 3.141.803 4.406z"/></svg>