<svg xmlns="http://www.w3.org/2000/svg" width="24" height="24" viewBox="0 0 24 24"><path d="M12 2c5.514 0 10 4.486 10 10s-4.486 10-10 10-10-4.486-10-10 4.486-10 10-10zm0-2c-6.627 0-12 5.373-12 12s5.373 12 12 12 12-5.373 12-12-5.373-12-12-12zm6 11.889c0-.729-.596-1.323-1.329-1.323-.358 0-.681.143-.92.373-.905-.595-2.13-.975-3.485-1.023l.742-2.334 2.008.471-.003.029c0 .596.487 1.082 1.087 1.082.599 0 1.086-.485 1.086-1.082s-.488-1.082-1.087-1.082c-.46 0-.852.287-1.01.69l-2.164-.507c-.094-.023-.191.032-.22.124l-.827 2.603c-1.419.017-2.705.399-3.65 1.012-.237-.219-.552-.356-.9-.356-.732.001-1.328.594-1.328 1.323 0 .485.267.905.659 1.136-.026.141-.043.283-.043.429-.001 1.955 2.404 3.546 5.359 3.546 2.956 0 5.36-1.591 5.36-3.546 0-.137-.015-.272-.038-.405.416-.224.703-.657.703-1.16zm-8.612.908c0-.434.355-.788.791-.788.436 0 .79.353.79.788 0 .434-.355.787-.79.787-.436.001-.791-.352-.791-.787zm4.53 2.335c-.398.396-1.024.589-1.912.589l-.007-.001-.007.001c-.888 0-1.514-.193-1.912-.589-.073-.072-.073-.19 0-.262.072-.072.191-.072.263 0 .325.323.864.481 1.649.481l.007.001.007-.001c.784 0 1.324-.157 1.649-.481.073-.072.19-.072.263 0 .073.072.073.19 0 .262zm-.094-1.547c-.436 0-.79-.353-.79-.787 0-.434.355-.788.79-.788.436 0 .79.353.79.788 0 .434-.354.787-.79.787z"/></svg>