<svg width="48" height="48" viewBox="0 0 48 48" fill="none" xmlns="http://www.w3.org/2000/svg">
    <path
        d="M2.14713 14.0331L1.08647 12.9724L2.14713 14.0331L14.0331 2.14714C14.4474 1.73278 15.0094 1.5 15.5954 1.5L32.4046 1.5C32.9906 1.5 33.5526 1.73278 33.9669 2.14713L45.8529 14.0331C46.2672 14.4474 46.5 15.0094 46.5 15.5954L46.5 32.4046C46.5 32.9906 46.2672 33.5526 45.8529 33.9669L33.9669 45.8529C33.5526 46.2672 32.9906 46.5 32.4046 46.5H15.5954C15.0094 46.5 14.4474 46.2672 14.0331 45.8529L12.9724 46.9135L14.0331 45.8529L2.14714 33.9669C1.73278 33.5526 1.5 32.9906 1.5 32.4046L1.5 15.5954C1.5 15.0094 1.73278 14.4474 2.14713 14.0331Z"
        stroke="#FF6534"
        stroke-width="3"
    />
    <path d="M24.5 15L24.5 27.5" stroke="#FF6534" stroke-width="3" stroke-linecap="round" />
    <circle cx="24.5" cy="33.5" r="1.5" fill="#FF6534" />
</svg>
