<svg xmlns="http://www.w3.org/2000/svg" viewBox="0 0 12.751 12.75">
  <defs>
    <style>
      .cls-1 {
        fill: #77838f;
        stroke: #77838f;
        stroke-width: 0.75px;
        fill-rule: evenodd;
      }
    </style>
  </defs>
  <g id="cmc" transform="translate(-163.775 -182.082)">
    <path id="Path_1" data-name="Path 1" class="cls-1" d="M10.434,7.171a.648.648,0,0,1-.653.043.954.954,0,0,1-.374-.887V5.018c0-.632-.254-1.082-.678-1.2-.719-.206-1.26.66-1.463.986L6,6.826V4.35c-.014-.57-.2-.91-.558-1.013-.236-.068-.589-.041-.932.476L1.668,8.307A4.908,4.908,0,1,1,10.907,6s0,.009,0,.013,0,.009,0,.013a1.216,1.216,0,0,1-.473,1.144ZM12,6h0V5.973a6,6,0,1,0-1.92,4.427.545.545,0,0,0-.741-.8,4.9,4.9,0,0,1-6.989-.325L4.908,5.223V7.091c0,.9.353,1.187.649,1.272s.75.027,1.225-.734l1.409-2.25c.045-.073.087-.135.125-.189V6.327a2,2,0,0,0,.935,1.84,1.737,1.737,0,0,0,1.759-.07A2.258,2.258,0,0,0,12,6Z" transform="translate(164.15 182.457)"/>
  </g>
</svg>
