<?xml version="1.0" encoding="UTF-8" standalone="no"?>
<svg
   xmlns:dc="http://purl.org/dc/elements/1.1/"
   xmlns:cc="http://creativecommons.org/ns#"
   xmlns:rdf="http://www.w3.org/1999/02/22-rdf-syntax-ns#"
   xmlns:svg="http://www.w3.org/2000/svg"
   xmlns="http://www.w3.org/2000/svg"
   xmlns:sodipodi="http://sodipodi.sourceforge.net/DTD/sodipodi-0.dtd"
   xmlns:inkscape="http://www.inkscape.org/namespaces/inkscape"
   width="26"
   height="26"
   viewBox="0 0 26 26"
   fill="none"
   version="1.1"
   id="svg16"
   sodipodi:docname="bat.svg"
   inkscape:version="0.92.1 r15371">
  <metadata
     id="metadata22">
    <rdf:RDF>
      <cc:Work
         rdf:about="">
        <dc:format>image/svg+xml</dc:format>
        <dc:type
           rdf:resource="http://purl.org/dc/dcmitype/StillImage" />
        <dc:title></dc:title>
      </cc:Work>
    </rdf:RDF>
  </metadata>
  <defs
     id="defs20" />
  <sodipodi:namedview
     pagecolor="#ffffff"
     bordercolor="#666666"
     borderopacity="1"
     objecttolerance="10"
     gridtolerance="10"
     guidetolerance="10"
     inkscape:pageopacity="0"
     inkscape:pageshadow="2"
     inkscape:window-width="1600"
     inkscape:window-height="821"
     id="namedview18"
     showgrid="false"
     inkscape:zoom="9.0769231"
     inkscape:cx="11.072034"
     inkscape:cy="4.5132236"
     inkscape:window-x="1911"
     inkscape:window-y="-9"
     inkscape:window-maximized="1"
     inkscape:current-layer="svg16" />
  <g
     id="Layer_2"
     data-name="Layer 2"
     transform="matrix(0.24576388,0,0,0.24537993,0.76140807,1.4444918)">
    <g
       id="Layer_1-2"
       data-name="Layer 1">
      <polygon
         class="cls-1"
         points="74.39,72.34 50.24,30.62 26.1,72.34 "
         id="polygon8"
         style="fill:#ffffff" />
      <path
         class="cls-2"
         d="m 50.25,0 a 2.31,2.31 0 0 0 -2,1.16 L 0.31,84 a 2.32,2.32 0 0 0 0,2.32 l 29.28,-17 20.66,-35.7 z"
         id="path10"
         inkscape:connector-curvature="0"
         style="fill:#ff4724" />
      <path
         class="cls-3"
         d="M 100.18,84 52.25,1.16 A 2.31,2.31 0 0 0 50.25,0 v 33.63 l 20.65,35.7 29.28,17 a 2.32,2.32 0 0 0 0,-2.33 z"
         id="path12"
         inkscape:connector-curvature="0"
         style="fill:#9e1f63" />
      <path
         class="cls-4"
         d="M 100.18,86.29 70.9,69.29 H 29.59 l -29.28,17 a 2.32,2.32 0 0 0 2,1.16 h 95.86 a 2.32,2.32 0 0 0 2.01,-1.16 z"
         id="path14"
         inkscape:connector-curvature="0"
         style="fill:#662d91" />
    </g>
  </g>
</svg>
