<?xml version="1.0" encoding="UTF-8" standalone="no"?>
<svg
   xmlns:dc="http://purl.org/dc/elements/1.1/"
   xmlns:cc="http://creativecommons.org/ns#"
   xmlns:rdf="http://www.w3.org/1999/02/22-rdf-syntax-ns#"
   xmlns:svg="http://www.w3.org/2000/svg"
   xmlns="http://www.w3.org/2000/svg"
   xmlns:sodipodi="http://sodipodi.sourceforge.net/DTD/sodipodi-0.dtd"
   xmlns:inkscape="http://www.inkscape.org/namespaces/inkscape"
   width="202"
   height="39"
   viewBox="0 0 202 39"
   version="1.1"
   id="svg28"
   sodipodi:docname="fortmatic_logo.svg"
   style="fill:none"
   inkscape:version="0.92.1 r15371">
  <metadata
     id="metadata34">
    <rdf:RDF>
      <cc:Work
         rdf:about="">
        <dc:format>image/svg+xml</dc:format>
        <dc:type
           rdf:resource="http://purl.org/dc/dcmitype/StillImage" />
        <dc:title></dc:title>
      </cc:Work>
    </rdf:RDF>
  </metadata>
  <defs
     id="defs32" />
  <sodipodi:namedview
     pagecolor="#ffffff"
     bordercolor="#666666"
     borderopacity="1"
     objecttolerance="10"
     gridtolerance="10"
     guidetolerance="10"
     inkscape:pageopacity="0"
     inkscape:pageshadow="2"
     inkscape:window-width="1920"
     inkscape:window-height="1001"
     id="namedview30"
     showgrid="false"
     inkscape:zoom="1.908"
     inkscape:cx="125"
     inkscape:cy="19.5"
     inkscape:window-x="-9"
     inkscape:window-y="-9"
     inkscape:window-maximized="1"
     inkscape:current-layer="svg28" />
  <path
     d="m 54.9414,31.3206 h 4.3821 v -9.6545 h 7.9407 V 17.7614 H 59.3235 V 11.6349 H 69.3547 V 7.73291 H 54.9414 Z"
     id="path4"
     inkscape:connector-curvature="0"
     style="fill:#120533" />
  <path
     d="m 78.0195,14.9658 c -4.5523,0 -8.3203,3.2517 -8.3203,8.2841 0,5.0323 3.768,8.3537 8.3203,8.3537 4.5523,0 8.3203,-3.3214 8.3203,-8.3537 0,-5.0324 -3.8015,-8.2841 -8.3203,-8.2841 z m 0,12.56 c -2.2943,0 -4.1866,-1.6746 -4.1866,-4.2787 0,-2.5344 1.8812,-4.1867 4.1866,-4.1867 2.3055,0 4.1867,1.6412 4.1867,4.1867 -0.0112,2.6041 -1.8924,4.2815 -4.1867,4.2815 z"
     id="path6"
     inkscape:connector-curvature="0"
     style="fill:#120533" />
  <path
     d="m 108.668,9.21338 h -4.142 v 6.09302 h -2.909 v 3.3549 h 2.909 v 12.6353 h 4.142 V 18.6613 h 3.391 v -3.3549 h -3.391 z"
     id="path8"
     inkscape:connector-curvature="0"
     style="fill:#120533" />
  <path
     d="m 133.797,14.9658 c -1.267,0 -3.525,0.3768 -5.024,3.0116 -0.89,-1.9537 -2.568,-2.8413 -5.102,-2.9781 -1.505,0 -3.696,0.7201 -4.586,2.6711 v -2.3641 h -4.187 v 15.9903 h 4.187 v -8.5268 c 0,-2.7381 1.641,-3.7317 3.349,-3.7317 1.642,0 2.909,1.2336 2.945,3.4581 v 8.8004 h 4.187 v -8.5268 c 0,-2.4311 1.37,-3.7317 3.251,-3.7317 1.714,0 3.015,1.2671 3.015,3.5614 v 8.6971 h 4.142 v -9.1409 c -0.014,-4.6918 -2.308,-7.1899 -6.177,-7.1899 z"
     id="path10"
     inkscape:connector-curvature="0"
     style="fill:#120533" />
  <path
     d="m 155.91,17.2936 c -1.164,-1.7807 -3.526,-2.3278 -4.963,-2.3278 -4.212,0 -8.15,3.1819 -8.15,8.3175 0,5.1357 3.938,8.3203 8.15,8.3203 1.574,0 3.935,-0.7201 4.963,-2.3612 v 2.0542 h 4.186 V 15.3063 h -4.186 z m -4.383,10.3048 c -2.294,0 -4.415,-1.7472 -4.415,-4.3151 0,-2.5678 2.121,-4.3122 4.415,-4.3122 2.191,0 4.383,1.5407 4.383,4.3122 0,2.7716 -2.122,4.3151 -4.383,4.3151 z"
     id="path12"
     inkscape:connector-curvature="0"
     style="fill:#120533" />
  <path
     d="m 170.285,9.21338 h -4.142 v 6.09302 h -2.909 v 3.3549 h 2.909 v 12.6353 h 4.142 V 18.6613 h 3.391 v -3.3549 h -3.391 z"
     id="path14"
     inkscape:connector-curvature="0"
     style="fill:#120533" />
  <path
     d="m 178.912,6.6123 c -1.471,0 -2.705,1.09411 -2.705,2.49804 0,1.40396 1.234,2.53436 2.705,2.53436 0.666,0 1.305,-0.2647 1.776,-0.7358 0.471,-0.4711 0.736,-1.11 0.736,-1.77622 0,-0.66623 -0.265,-1.30517 -0.736,-1.77626 -0.471,-0.47109 -1.11,-0.73574 -1.776,-0.73574 z"
     id="path16"
     inkscape:connector-curvature="0"
     style="fill:#120533" />
  <path
     d="m 180.966,15.3062 h -4.142 v 15.9874 h 4.142 z"
     id="path18"
     inkscape:connector-curvature="0"
     style="fill:#120533" />
  <path
     d="m 196.613,26.0255 c -0.391,0.5077 -0.894,0.9174 -1.471,1.1965 -0.576,0.279 -1.21,0.4198 -1.851,0.4111 -2.327,0 -4.482,-1.7807 -4.482,-4.382 0,-2.6013 2.155,-4.2453 4.482,-4.2453 0.638,-0.0148 1.271,0.1199 1.848,0.3932 0.577,0.2733 1.081,0.6778 1.474,1.181 l 3.321,-2.512 c -1.507,-1.9873 -3.972,-3.1149 -6.643,-3.1149 -4.585,0 -8.627,3.2517 -8.627,8.284 0,5.0324 4.042,8.3873 8.627,8.3873 2.705,0 5.172,-1.1639 6.677,-3.1483 z"
     id="path20"
     inkscape:connector-curvature="0"
     style="fill:#120533" />
  <path
     d="m 89.2891,15.3062 v 15.9902 h 4.1866 V 18.9709 h 3.782 c 1.0718,0 1.9398,-0.9462 1.9398,-2.1157 v -1.549 z"
     id="path22"
     inkscape:connector-curvature="0"
     style="fill:#120533" />
  <path
     d="M 28.7289,0 H 19.1526 9.5763 0 v 9.5763 9.5763 0.614 8.9065 0.0558 9.5205 h 9.5763 v -9.5205 -0.0558 -8.9065 -0.614 -9.5763 h 9.5763 9.5763 9.5763 V 0 Z"
     id="path24"
     inkscape:connector-curvature="0"
     style="fill:#617bff" />
  <path
     d="m 19.207,28.6728 h 9.5205 v 9.5763 h 0.3349 c 2.45,-0.0014 4.7992,-0.9757 6.5311,-2.7087 1.7319,-1.7329 2.7047,-4.0826 2.7047,-6.5326 V 19.1523 H 19.207 Z"
     id="path26"
     inkscape:connector-curvature="0"
     style="fill:#617bff" />
</svg>
