<?xml version="1.0" encoding="UTF-8" standalone="no"?>
<!-- Created with Inkscape (http://www.inkscape.org/) -->

<svg
   xmlns:dc="http://purl.org/dc/elements/1.1/"
   xmlns:cc="http://creativecommons.org/ns#"
   xmlns:rdf="http://www.w3.org/1999/02/22-rdf-syntax-ns#"
   xmlns:svg="http://www.w3.org/2000/svg"
   xmlns="http://www.w3.org/2000/svg"
   xmlns:sodipodi="http://sodipodi.sourceforge.net/DTD/sodipodi-0.dtd"
   xmlns:inkscape="http://www.inkscape.org/namespaces/inkscape"
   width="26"
   height="26"
   viewBox="0 0 6.8791667 6.8791667"
   version="1.1"
   id="svg8"
   inkscape:version="0.92.1 r15371"
   sodipodi:docname="knc.svg">
  <defs
     id="defs2" />
  <sodipodi:namedview
     id="base"
     pagecolor="#ffffff"
     bordercolor="#666666"
     borderopacity="1.0"
     inkscape:pageopacity="0.0"
     inkscape:pageshadow="2"
     inkscape:zoom="11.2"
     inkscape:cx="-17.541569"
     inkscape:cy="-2.1229513"
     inkscape:document-units="mm"
     inkscape:current-layer="layer1"
     showgrid="false"
     inkscape:window-width="1920"
     inkscape:window-height="1001"
     inkscape:window-x="-9"
     inkscape:window-y="-9"
     inkscape:window-maximized="1"
     units="px" />
  <metadata
     id="metadata5">
    <rdf:RDF>
      <cc:Work
         rdf:about="">
        <dc:format>image/svg+xml</dc:format>
        <dc:type
           rdf:resource="http://purl.org/dc/dcmitype/StillImage" />
        <dc:title></dc:title>
      </cc:Work>
    </rdf:RDF>
  </metadata>
  <g
     inkscape:label="Camada 1"
     inkscape:groupmode="layer"
     id="layer1"
     transform="translate(0,-290.12083)">
    <g
       style="fill:none;fill-rule:evenodd;stroke:none;stroke-width:1"
       id="Symbols"
       transform="matrix(0.10667577,0,0,0.09520002,1.1786579,290.1964)">
      <g
         style="fill-rule:nonzero"
         id="Top-Menu-Login">
        <g
           id="kyber-logo">
          <g
             style="fill:#141927"
             id="Group"
             transform="translate(56,16)">
            <path
               inkscape:connector-curvature="0"
               d="m 11.772258,15.454393 c -0.320645,0.180753 -0.717634,0.27113 -1.175699,0.27113 -0.152688,0 -0.503871,-0.01506 -1.0840859,-0.07531 v 1.641841 c 0.5038709,0.135565 1.0077419,0.180753 1.5268819,0.180753 0.793978,0 1.450538,-0.210878 1.984946,-0.617573 0.534409,-0.406694 1.007742,-1.03933 1.404731,-1.912971 L 18.918064,4.8200837 16.795699,4.8502092 14.077849,11.477824 11.436344,4.8502092 H 9.3139785 l 3.6797845,8.6761508 -0.38172,0.858577 c -0.244301,0.527197 -0.534409,0.888703 -0.839785,1.069456 z"
               id="Shape" />
            <path
               inkscape:connector-curvature="0"
               d="m 22.261935,12.697908 c 0.335914,0.466946 0.793979,0.828452 1.343656,1.084519 0.564947,0.256067 1.175699,0.391632 1.862796,0.391632 1.29785,0 2.366667,-0.43682 3.206452,-1.355649 0.839785,-0.903766 1.28258,-2.033473 1.28258,-3.3891213 0,-1.3556485 -0.427527,-2.4853557 -1.297849,-3.3891213 C 27.789247,5.1364017 26.705161,4.6845188 25.407312,4.6845188 l 0.07634,-0.015063 c -1.328387,0 -2.366667,0.43682 -3.09957,1.3104602 V 0.07531381 H 20.414409 V 13.948117 h 1.832258 V 12.697908 Z M 23.10172,7.2451883 c 0.549678,-0.5121339 1.206237,-0.7832636 1.969678,-0.7832636 0.809247,0 1.481075,0.2711297 2.030752,0.8284519 0.549678,0.5573221 0.809248,1.2652719 0.809248,2.1238493 0,0.8736401 -0.25957,1.5966531 -0.809248,2.1539751 -0.549677,0.557322 -1.175698,0.858577 -1.984946,0.858577 h -0.03054 c -0.763441,0 -1.42,-0.241004 -1.969678,-0.738075 -0.549677,-0.497071 -0.824516,-1.235147 -0.824516,-2.214226 0,-0.9790795 0.25957,-1.7171548 0.809247,-2.2292887 z"
               id="path9" />
            <path
               inkscape:connector-curvature="0"
               d="m 4.7180645,26.480335 h -0.015269 c -1.1451613,0 -2.0612903,0.376569 -2.7636559,1.114644 V 26.691213 H 0.10688172 v 9.128034 H 2.0765591 v -5.45272 c 0,-0.617573 0.1832258,-1.114644 0.5802151,-1.506276 0.3969892,-0.391632 0.9008602,-0.587448 1.5268817,-0.587448 0.5954839,0 1.084086,0.210879 1.4658065,0.587448 0.3817204,0.391632 0.5649462,0.903766 0.5649462,1.536402 v 5.422594 H 8.184086 v -5.693724 c 0,-1.084519 -0.3053763,-1.958159 -0.916129,-2.620921 C 6.6572043,26.841841 5.7868817,26.480335 4.7180645,26.480335 Z"
               id="path11" />
            <path
               inkscape:connector-curvature="0"
               d="m 14.734409,26.465272 c -1.328387,0 -2.45828,0.466946 -3.374409,1.385774 -0.916129,0.918828 -1.3894624,2.048536 -1.3894624,3.389121 0,1.355649 0.4733334,2.485356 1.4047314,3.389122 C 12.306667,35.533054 13.497634,36 14.917634,36 c 1.404732,0 2.626237,-0.482008 3.679785,-1.461088 l -0.931398,-1.325523 c -0.824516,0.723013 -1.725376,1.069456 -2.687311,1.069456 -0.809248,0 -1.481076,-0.210878 -2.030753,-0.632636 -0.549677,-0.421757 -0.885591,-1.024268 -1.007742,-1.777406 h 6.870968 c 0.167957,-0.451883 0.183226,-1.220083 0.183226,-1.220083 0,-1.205021 -0.412259,-2.199164 -1.221506,-2.99749 -0.793978,-0.798326 -1.816989,-1.189958 -3.038494,-1.189958 z m -2.748387,3.901255 c 0.152688,-0.677824 0.473333,-1.220084 0.961935,-1.626778 0.488602,-0.406695 1.03828,-0.602511 1.694839,-0.617573 0.656559,0 1.206236,0.210878 1.664301,0.617573 0.442796,0.406694 0.671828,0.948954 0.687097,1.626778 z"
               id="path13" />
            <path
               inkscape:connector-curvature="0"
               d="m 36.706237,14.189121 c 1.404731,0 2.626236,-0.482008 3.679784,-1.461087 l -0.931397,-1.325523 c -0.824517,0.723012 -1.725377,1.069456 -2.687312,1.069456 -0.809248,0 -1.481075,-0.210879 -2.030753,-0.632636 -0.549677,-0.421758 -0.885591,-1.024268 -1.007742,-1.777406 h 6.870968 c 0.183226,-0.4820087 0.183226,-1.220084 0.183226,-1.220084 0,-1.2050209 -0.412258,-2.1991632 -1.221506,-2.9974895 -0.809247,-0.7983264 -1.816989,-1.1899582 -3.038494,-1.1899582 -1.328387,0 -2.45828,0.4669456 -3.374409,1.3857741 -0.916129,0.9188284 -1.389462,2.0485355 -1.389462,3.3891213 0,1.3556483 0.473333,2.4853553 1.404731,3.3891213 0.931398,0.918829 2.122366,1.370711 3.542366,1.370711 z M 34.72129,6.943933 c 0.488603,-0.4066945 1.03828,-0.6025104 1.694839,-0.6175732 0.656559,0 1.206237,0.2108787 1.664301,0.6175732 0.442796,0.4066946 0.671828,0.948954 0.687097,1.6267783 H 33.759355 C 33.912043,7.8778243 34.232688,7.3506276 34.72129,6.943933 Z"
               id="path15" />
            <path
               inkscape:connector-curvature="0"
               d="m 25.575269,34.222594 c -0.595484,0 -1.053549,-0.105439 -1.343656,-0.346443 -0.305376,-0.241005 -0.442796,-0.647699 -0.442796,-1.220084 v -4.277824 h 2.733119 v -1.68703 h -2.733119 v -2.379916 h -1.984946 v 2.379916 h -1.496344 v 1.68703 h 1.496344 v 4.443514 c 0,1.054394 0.305376,1.85272 0.90086,2.364854 0.595484,0.512134 1.42,0.783264 2.488817,0.783264 0.473334,0 1.007742,-0.07531 1.633764,-0.210879 v -1.641841 c -0.549678,0.06025 -0.931398,0.105439 -1.221506,0.105439 z"
               id="path17" />
            <polygon
               id="polygon19"
               points="32.812688,35.969875 35.698495,29.929707 38.584301,35.969875 39.271398,35.969875 43.348172,26.691213 41.256344,26.691213 38.874409,32.550628 36.034409,26.480335 35.362581,26.480335 32.568387,32.625941 30.140645,26.691213 28.048817,26.691213 32.14086,35.969875 " />
            <path
               inkscape:connector-curvature="0"
               d="m 48.768602,26.480335 c -1.374193,0 -2.519355,0.466945 -3.450753,1.370711 -0.931397,0.903766 -1.404731,2.033473 -1.404731,3.374059 0,1.340585 0.473334,2.45523 1.404731,3.374058 0.931398,0.903766 2.07656,1.370712 3.450753,1.385774 1.343656,0 2.488817,-0.466945 3.450753,-1.385774 0.961935,-0.918828 1.42,-2.048535 1.42,-3.389121 0,-1.325523 -0.488602,-2.45523 -1.450538,-3.374059 -0.931398,-0.903765 -2.076559,-1.340586 -3.420215,-1.355648 z m 2.000215,6.838494 c -0.549677,0.557322 -1.221505,0.828451 -2.030753,0.828451 -0.824516,0 -1.496344,-0.271129 -2.046021,-0.828451 -0.549677,-0.557323 -0.809247,-1.265273 -0.809247,-2.093724 0,-0.858578 0.25957,-1.551465 0.809247,-2.108787 0.549677,-0.557322 1.221505,-0.828452 2.046021,-0.858577 h 0.01527 c 0.809248,0.01506 1.481076,0.301255 2.030753,0.843514 0.549677,0.557322 0.809247,1.265272 0.809247,2.108787 0,0.843514 -0.290107,1.551464 -0.824517,2.108787 z"
               id="path21" />
            <path
               inkscape:connector-curvature="0"
               d="m 59.960645,26.600837 c 0,0 0.03586,0 0.03586,0 0,0 0.03586,0 0.03586,0 z"
               id="path23" />
            <path
               inkscape:connector-curvature="0"
               d="m 57.288602,27.866109 v -1.189958 h -1.832258 v 9.128033 h 1.969677 v -4.880335 c 0,-0.798326 0.25957,-1.400836 0.763441,-1.852719 0.503871,-0.43682 1.145162,-0.662762 1.908602,-0.662762 h 0.595484 v -1.717155 c -0.213763,-0.06025 -0.458064,-0.09038 -0.732903,-0.09038 -1.114624,0 -2.015484,0.421757 -2.672043,1.265272 z"
               id="path25" />
            <path
               inkscape:connector-curvature="0"
               d="m 44.569677,9.1280335 c 0,-0.7983264 0.25957,-1.4008369 0.763441,-1.8527197 0.503871,-0.4368201 1.145162,-0.6627615 1.908602,-0.6627615 h 0.595484 V 4.8953975 c -0.213763,-0.060251 -0.458064,-0.090377 -0.732903,-0.090377 -1.129892,0 -2.030753,0.4368201 -2.687312,1.2803348 V 4.8953975 h -1.832258 v 9.1129705 h 1.969678 V 9.1280335 Z"
               id="path27" />
            <path
               inkscape:connector-curvature="0"
               d="m 47.104301,4.7899582 c 0,0 0.03586,0 0.03586,0 0,0 0.03586,0 0.03586,0 z"
               id="path29" />
            <rect
               id="Rectangle-path"
               x="62.525806"
               y="21.886192"
               width="1.9696774"
               height="13.917992" />
            <polygon
               id="polygon32"
               points="68.16,26.691213 64.556559,30.667782 68.572258,35.804184 70.938925,35.804184 66.877419,30.682845 70.587742,26.691213 " />
            <polygon
               id="polygon34"
               points="2.1376344,8.8719665 6.1533333,14.008368 8.52,14.008368 4.4584946,8.8870293 8.1688172,4.8803347 5.7258065,4.8803347 " />
            <rect
               id="rect36"
               x="0.10688172"
               y="0.090376571"
               width="1.9696774"
               height="13.917992" />
          </g>
          <path
             style="fill:#31cb9e"
             inkscape:connector-curvature="0"
             d="m 20,33.508557 25.029197,14.3175 C 45.908478,48.324978 47,47.689988 47,46.692147 V 20.309848 c 0,-1.012959 -1.091522,-1.63283 -1.970803,-1.13391 z"
             id="path39" />
          <path
             style="fill:#31cb9e"
             inkscape:connector-curvature="0"
             d="M 44.473259,12.835091 27.376903,0.26904937 C 26.58281,-0.31576644 25.446167,0.10410132 25.243751,1.0338085 L 19,29 44.317554,14.994411 c 0.840804,-0.464853 0.918657,-1.589499 0.155705,-2.15932"
             id="path41" />
          <path
             style="fill:#31cb9e"
             inkscape:connector-curvature="0"
             d="M 27.36083,66.73754 44.471728,54.168616 c 0.762906,-0.569951 0.685059,-1.694855 -0.140126,-2.159815 L 19,38 25.243376,65.972606 c 0.186834,0.92992 1.338978,1.334885 2.117454,0.764934"
             id="path43" />
          <path
             style="fill:#31cb9e"
             inkscape:connector-curvature="0"
             d="M 13.497138,33.007566 19.968574,2.5919233 C 20.223237,1.3964826 18.875021,0.53394943 17.91629,1.2754253 L 1.3482158,14.046969 C 0.49434578,14.697652 0,15.726639 0,16.801022 v 32.397956 c 0,1.074383 0.49434578,2.10337 1.3482158,2.754053 L 17.91629,64.724575 c 0.958731,0.741476 2.306947,-0.121058 2.052284,-1.316498 z"
             id="path45" />
        </g>
      </g>
    </g>
  </g>
</svg>
