<?xml version="1.0" encoding="UTF-8" standalone="no"?>
<svg
   xmlns:dc="http://purl.org/dc/elements/1.1/"
   xmlns:cc="http://creativecommons.org/ns#"
   xmlns:rdf="http://www.w3.org/1999/02/22-rdf-syntax-ns#"
   xmlns:svg="http://www.w3.org/2000/svg"
   xmlns="http://www.w3.org/2000/svg"
   xmlns:sodipodi="http://sodipodi.sourceforge.net/DTD/sodipodi-0.dtd"
   xmlns:inkscape="http://www.inkscape.org/namespaces/inkscape"
   version="1"
   width="26"
   height="26"
   viewBox="0 0 19.5 19.499999"
   id="svg10"
   sodipodi:docname="kubo.svg"
   inkscape:version="0.92.1 r15371">
  <metadata
     id="metadata11">
    <rdf:RDF>
      <cc:Work
         rdf:about="">
        <dc:format>image/svg+xml</dc:format>
        <dc:type
           rdf:resource="http://purl.org/dc/dcmitype/StillImage" />
        <dc:title></dc:title>
      </cc:Work>
    </rdf:RDF>
  </metadata>
  <defs
     id="defs9" />
  <sodipodi:namedview
     pagecolor="#ffffff"
     bordercolor="#666666"
     borderopacity="1"
     objecttolerance="10"
     gridtolerance="10"
     guidetolerance="10"
     inkscape:pageopacity="0"
     inkscape:pageshadow="2"
     inkscape:window-width="1920"
     inkscape:window-height="1001"
     id="namedview7"
     showgrid="false"
     units="px"
     inkscape:zoom="6.8076923"
     inkscape:cx="17.333333"
     inkscape:cy="17.333333"
     inkscape:window-x="-9"
     inkscape:window-y="-9"
     inkscape:window-maximized="1"
     inkscape:current-layer="svg10" />
  <g
     transform="matrix(0.00255551,0,0,-0.0025508,-1.6785838,20.525807)"
     id="g8">
    <path
       d="m 610,7726 v -343 l 183,43 c 385,90 556,113 873,121 336,8 568,-16 864,-88 539,-132 1016,-391 1480,-805 318,-284 509,-540 720,-961 185,-372 286,-668 345,-1017 94,-554 39,-1058 -175,-1621 C 4681,2482 4307,1955 3813,1530 3319,1103 2711,868 1977,819 1695,801 1450,821 973,900 809,928 661,950 643,950 H 610 V 641 c 0,-272 2,-310 16,-315 9,-3 802,-6 1762,-6 1728,0 1747,1 1791,21 25,11 121,78 215,148 819,617 1354,1327 1637,2171 118,354 191,703 231,1105 19,194 16,710 -5,925 -56,566 -190,1039 -426,1510 -310,616 -758,1144 -1396,1646 -192,151 -227,174 -312,201 l -74,23 H 2330 610 Z"
       id="path2"
       inkscape:connector-curvature="0" />
    <path
       d="m 5010,8064 c 0,-3 94,-98 208,-212 852,-846 1335,-1761 1511,-2862 35,-218 52,-417 58,-690 14,-628 -67,-1183 -252,-1735 C 6285,1816 5868,1165 5238,539 5129,431 5040,338 5040,331 c 0,-8 412,-11 1644,-11 904,0 1651,3 1660,6 15,6 16,356 16,3875 V 8070 H 6685 c -921,0 -1675,-3 -1675,-6 z"
       id="path4"
       inkscape:connector-curvature="0" />
    <path
       d="M 1505,6910 C 1205,6883 790,6783 663,6707 l -53,-31 v -604 -604 l 38,23 c 20,12 44,27 52,34 42,32 200,121 291,165 654,311 1436,171 1929,-346 198,-207 357,-484 421,-731 86,-335 57,-725 -80,-1075 -156,-396 -447,-694 -856,-877 -270,-120 -551,-173 -812,-151 -295,25 -536,111 -837,299 -72,45 -133,81 -138,81 -4,0 -8,-274 -8,-609 v -609 l 143,-46 c 407,-129 598,-164 927,-173 242,-6 345,2 570,47 879,175 1538,700 1951,1555 116,241 184,450 230,710 30,170 37,508 15,700 -75,647 -351,1214 -815,1675 -416,413 -940,668 -1551,755 -138,19 -436,27 -575,15 z"
       id="path6"
       inkscape:connector-curvature="0" />
  </g>
</svg>
