<svg id="svg" version="1.1" width="33" height="33" viewBox="0 0 33 33" xmlns="http://www.w3.org/2000/svg" xmlns:xlink="http://www.w3.org/1999/xlink" ><g id="svgg"><path id="path0" d="M192.767 0.966 C 192.675 1.057,190.080 1.338,187.000 1.590 C 180.716 2.105,174.405 2.972,172.600 3.567 C 171.940 3.785,169.510 4.349,167.200 4.820 C 153.804 7.555,132.233 16.866,125.443 22.845 C 117.384 29.941,121.492 42.031,131.950 41.992 C 134.791 41.981,137.357 41.044,147.000 36.496 C 180.237 20.819,208.877 19.062,240.148 30.781 C 247.825 33.657,251.764 35.590,272.000 46.408 C 297.134 59.845,309.580 65.777,326.877 72.563 C 335.666 76.011,337.782 77.331,339.245 80.276 L 340.200 82.200 340.327 109.600 C 340.575 163.345,339.546 222.669,338.185 233.047 C 333.549 268.414,310.956 301.732,268.511 335.793 C 245.712 354.089,209.000 375.200,199.983 375.200 C 190.635 375.200,154.307 354.043,130.859 334.943 C 85.346 297.869,64.889 265.864,60.584 225.000 C 59.228 212.130,58.504 88.411,59.753 83.102 C 61.010 77.764,62.622 76.675,79.738 69.614 C 95.182 63.242,101.643 60.390,104.838 58.534 C 117.971 50.906,110.250 34.326,95.573 38.638 C 90.875 40.019,50.470 56.853,47.200 58.792 C 42.652 61.489,39.994 64.623,38.315 69.269 L 37.400 71.800 37.278 125.800 C 37.053 225.935,37.754 237.803,45.253 260.800 C 61.854 311.708,116.573 363.546,188.312 396.327 C 196.729 400.173,202.969 400.177,211.142 396.342 C 249.906 378.155,278.713 358.489,306.536 331.218 C 343.793 294.702,358.934 263.169,361.669 216.400 C 362.559 201.179,362.406 73.344,361.493 70.042 C 359.327 62.200,356.955 60.413,340.605 54.304 C 320.501 46.793,298.793 36.431,275.200 23.082 C 257.533 13.086,243.182 7.001,231.600 4.595 C 229.070 4.069,225.740 3.354,224.200 3.005 C 218.375 1.684,193.656 0.081,192.767 0.966 M132.400 99.190 C 121.948 99.545,119.605 100.770,119.601 105.884 C 119.599 109.122,146.041 195.969,167.863 264.400 C 173.268 281.347,171.795 280.600,199.800 280.599 C 229.836 280.598,225.740 284.333,237.581 246.147 C 244.947 222.393,269.633 142.386,276.071 121.400 C 282.940 99.011,283.379 99.538,257.800 99.451 L 243.000 99.400 240.671 100.544 C 236.444 102.619,236.103 103.367,229.229 125.600 C 201.210 216.225,202.918 211.200,200.129 211.200 C 197.180 211.200,197.213 211.292,180.384 156.568 C 172.023 129.383,164.745 106.276,164.210 105.219 C 161.021 98.926,157.861 98.327,132.400 99.190 M178.694 316.215 C 176.880 318.029,176.939 320.180,178.851 321.962 C 181.101 324.058,185.200 322.145,185.200 319.000 C 185.200 315.707,181.000 313.909,178.694 316.215 M198.121 315.679 C 197.638 315.912,196.951 316.717,196.595 317.467 C 194.749 321.356,199.760 324.702,202.831 321.631 C 205.997 318.464,202.224 313.696,198.121 315.679 M216.921 315.679 C 215.499 316.366,214.658 318.558,215.194 320.182 C 216.401 323.840,221.917 323.580,222.621 319.831 C 223.240 316.529,220.019 314.182,216.921 315.679 " stroke="none" fill="#fbfbfb" fill-rule="evenodd"></path><path id="path1" d="M0.000 200.000 L 0.000 400.000 200.000 400.000 L 400.000 400.000 400.000 200.000 L 400.000 0.000 200.000 0.000 L 0.000 0.000 0.000 200.000 M213.000 1.588 C 217.620 2.018,222.660 2.656,224.200 3.005 C 225.740 3.354,229.070 4.069,231.600 4.595 C 243.182 7.001,257.533 13.086,275.200 23.082 C 298.793 36.431,320.501 46.793,340.605 54.304 C 356.955 60.413,359.327 62.200,361.493 70.042 C 362.406 73.344,362.559 201.179,361.669 216.400 C 358.934 263.169,343.793 294.702,306.536 331.218 C 278.713 358.489,249.906 378.155,211.142 396.342 C 202.969 400.177,196.729 400.173,188.312 396.327 C 116.573 363.546,61.854 311.708,45.253 260.800 C 37.754 237.803,37.053 225.935,37.278 125.800 L 37.400 71.800 38.315 69.269 C 39.994 64.623,42.652 61.489,47.200 58.792 C 50.470 56.853,90.875 40.019,95.573 38.638 C 110.250 34.326,117.971 50.906,104.838 58.534 C 101.643 60.390,95.182 63.242,79.738 69.614 C 62.622 76.675,61.010 77.764,59.753 83.102 C 58.504 88.411,59.228 212.130,60.584 225.000 C 64.889 265.864,85.346 297.869,130.859 334.943 C 154.307 354.043,190.635 375.200,199.983 375.200 C 209.000 375.200,245.712 354.089,268.511 335.793 C 310.956 301.732,333.549 268.414,338.185 233.047 C 339.546 222.669,340.575 163.345,340.327 109.600 L 340.200 82.200 339.245 80.276 C 337.782 77.331,335.666 76.011,326.877 72.563 C 309.580 65.777,297.134 59.845,272.000 46.408 C 251.764 35.590,247.825 33.657,240.148 30.781 C 208.877 19.062,180.237 20.819,147.000 36.496 C 137.357 41.044,134.791 41.981,131.950 41.992 C 121.492 42.031,117.384 29.941,125.443 22.845 C 132.233 16.866,153.804 7.555,167.200 4.820 C 169.510 4.349,171.940 3.785,172.600 3.567 C 174.405 2.972,180.716 2.105,187.000 1.590 C 190.080 1.338,192.675 1.057,192.767 0.966 C 193.219 0.516,205.564 0.896,213.000 1.588 M154.703 99.186 C 159.829 99.775,162.220 101.293,164.210 105.219 C 164.745 106.276,172.023 129.383,180.384 156.568 C 197.213 211.292,197.180 211.200,200.129 211.200 C 202.918 211.200,201.210 216.225,229.229 125.600 C 236.103 103.367,236.444 102.619,240.671 100.544 L 243.000 99.400 257.800 99.451 C 283.379 99.538,282.940 99.011,276.071 121.400 C 269.633 142.386,244.947 222.393,237.581 246.147 C 225.740 284.333,229.836 280.598,199.800 280.599 C 171.795 280.600,173.268 281.347,167.863 264.400 C 146.041 195.969,119.599 109.122,119.601 105.884 C 119.605 100.770,121.948 99.545,132.400 99.190 C 144.416 98.783,151.188 98.782,154.703 99.186 M184.031 316.369 C 186.476 318.814,184.787 322.800,181.306 322.800 C 178.870 322.800,176.878 320.423,177.439 318.187 C 178.185 315.214,181.862 314.200,184.031 316.369 M202.831 316.369 C 203.696 317.235,204.000 317.918,204.000 319.000 C 204.000 323.286,197.740 324.259,196.394 320.182 C 195.138 316.378,199.974 313.513,202.831 316.369 M220.822 315.612 C 222.037 316.262,222.907 318.303,222.621 319.831 C 221.917 323.580,216.401 323.840,215.194 320.182 C 214.136 316.975,217.803 313.996,220.822 315.612 " stroke="none" fill="#242424" fill-rule="evenodd"></path></g></svg>